<svg width="464" height="464" viewBox="0 0 464 464" fill="none" xmlns="http://www.w3.org/2000/svg">
<g clip-path="url(#clip0)">
<path d="M305.872 451.92C303.456 452.736 301.024 453.528 298.576 454.256C301.032 453.52 303.456 452.728 305.872 451.92Z" fill="#F9EDE0"/>
<path d="M317.992 447.472C315.384 448.512 312.776 449.536 310.12 450.48C312.776 449.528 315.392 448.512 317.992 447.472Z" fill="#F9EDE0"/>
<path d="M232 -7.62939e-06C301.989 -7.62939e-06 421.463 -49.0084 464 7.62939e-06C499.337 40.7126 464 173.859 464 232C464 304.804 516.465 421.465 464 464C424.13 496.324 287.326 464 232 464C159.196 464 42.5347 516.465 9.53674e-07 464C-32.3238 424.129 9.53674e-07 287.326 9.53674e-07 232C9.53674e-07 176.674 -32.3238 39.8705 2.86102e-06 -1.52588e-05C42.5347 -52.4653 159.196 -7.62939e-06 232 -7.62939e-06Z" fill="#EFECE8"/>
<path d="M293.896 455.584C291.528 456.24 289.144 456.864 286.736 457.448C289.144 456.864 291.528 456.24 293.896 455.584Z" fill="#F9EDE0"/>
<path d="M215.192 463.328C212.36 463.128 209.536 462.912 206.744 462.608C209.544 462.912 212.368 463.128 215.192 463.328Z" fill="#F9EDE0"/>
<path d="M177.256 457.44C174.856 456.856 172.472 456.232 170.096 455.576C172.472 456.24 174.856 456.864 177.256 457.44Z" fill="#F9EDE0"/>
<path d="M201.944 462C199.408 461.672 196.88 461.328 194.368 460.92C196.872 461.328 199.408 461.664 201.944 462Z" fill="#F9EDE0"/>
<path d="M232 464C227.728 464 223.496 463.864 219.28 463.64C223.496 463.864 227.728 464 232 464Z" fill="#F9EDE0"/>
<path d="M189.416 460.032C186.984 459.584 184.56 459.104 182.16 458.576C184.56 459.104 186.984 459.584 189.416 460.032Z" fill="#F9EDE0"/>
<path d="M142.608 446.128C139 444.616 135.432 443.032 131.92 441.352C135.44 443.032 139.008 444.624 142.608 446.128Z" fill="#F9EDE0"/>
<path d="M153.872 450.48C151.224 449.528 148.608 448.512 146 447.472C148.608 448.512 151.224 449.528 153.872 450.48Z" fill="#F9EDE0"/>
<path d="M244.72 463.64C240.504 463.864 236.272 464 232 464C236.272 464 240.504 463.864 244.72 463.64Z" fill="#F9EDE0"/>
<path d="M257.256 462.608C254.456 462.912 251.632 463.128 248.808 463.328C251.632 463.128 254.456 462.912 257.256 462.608Z" fill="#F9EDE0"/>
<path d="M281.848 458.576C279.44 459.104 277.024 459.584 274.592 460.032C277.016 459.584 279.44 459.104 281.848 458.576Z" fill="#F9EDE0"/>
<path d="M269.64 460.912C267.128 461.32 264.6 461.664 262.064 461.992C264.592 461.664 267.128 461.328 269.64 460.912Z" fill="#F9EDE0"/>
<path d="M332.032 441.368C328.536 443.04 324.984 444.624 321.392 446.128C324.984 444.624 328.536 443.048 332.032 441.368Z" fill="#F9EDE0"/>
<path d="M165.424 454.256C162.968 453.52 160.544 452.728 158.128 451.92C160.544 452.728 162.968 453.52 165.424 454.256Z" fill="#F9EDE0"/>
<path d="M321.392 446.128C320.272 446.6 319.128 447.016 318 447.464C319.12 447.016 320.264 446.6 321.392 446.128Z" fill="#F9EDE0"/>
<path d="M332.352 441.224C332.248 441.272 332.136 441.32 332.032 441.368C332.136 441.32 332.248 441.28 332.352 441.224Z" fill="#F9EDE0"/>
<path d="M182.152 458.576C180.512 458.216 178.88 457.84 177.256 457.448C178.88 457.84 180.512 458.216 182.152 458.576Z" fill="#F9EDE0"/>
<path d="M194.36 460.912C192.704 460.64 191.056 460.336 189.408 460.032C191.064 460.336 192.704 460.648 194.36 460.912Z" fill="#F9EDE0"/>
<path d="M219.28 463.64C217.912 463.568 216.552 463.424 215.192 463.328C216.56 463.424 217.912 463.568 219.28 463.64Z" fill="#F9EDE0"/>
<path d="M206.744 462.608C205.136 462.432 203.544 462.208 201.944 462C203.544 462.208 205.136 462.432 206.744 462.608Z" fill="#F9EDE0"/>
<path d="M131.928 441.352C131.84 441.312 131.744 441.272 131.656 441.232C131.744 441.272 131.84 441.312 131.928 441.352Z" fill="#F9EDE0"/>
<path d="M248.808 463.328C247.44 463.424 246.088 463.568 244.72 463.64C246.088 463.568 247.44 463.424 248.808 463.328Z" fill="#F9EDE0"/>
<path d="M298.576 454.256C297.024 454.72 295.464 455.152 293.896 455.584C295.464 455.152 297.024 454.72 298.576 454.256Z" fill="#F9EDE0"/>
<path d="M310.128 450.48C308.72 450.984 307.296 451.44 305.88 451.92C307.296 451.44 308.72 450.984 310.128 450.48Z" fill="#F9EDE0"/>
<path d="M146.008 447.472C144.88 447.024 143.736 446.6 142.616 446.136C143.736 446.6 144.88 447.016 146.008 447.472Z" fill="#F9EDE0"/>
<path d="M158.128 451.92C156.712 451.44 155.28 450.984 153.88 450.48C155.28 450.984 156.704 451.44 158.128 451.92Z" fill="#F9EDE0"/>
<path d="M262.056 462C260.456 462.208 258.864 462.44 257.256 462.608C258.864 462.432 260.456 462.208 262.056 462Z" fill="#F9EDE0"/>
<path d="M286.744 457.44C285.12 457.832 283.488 458.208 281.848 458.568C283.488 458.216 285.12 457.84 286.744 457.44Z" fill="#F9EDE0"/>
<path d="M274.584 460.032C272.936 460.336 271.296 460.648 269.632 460.912C271.296 460.648 272.936 460.336 274.584 460.032Z" fill="#F9EDE0"/>
<path d="M170.104 455.584C168.544 455.152 166.976 454.72 165.424 454.256C166.976 454.72 168.536 455.152 170.104 455.584Z" fill="#F9EDE0"/>
<path d="M285.104 247.952C310.952 230.744 328 201.376 328 168C328 114.984 285.016 72 232 72C178.984 72 136 114.984 136 168C136 201.376 153.048 230.744 178.896 247.952C178.896 247.952 178.904 247.96 178.912 247.96C178.904 247.96 178.904 247.952 178.904 247.952C117.032 266.6 68.856 316.816 53.344 379.992L53.352 380C55.88 383.048 58.504 386.024 61.184 388.944C61.832 389.656 62.512 390.336 63.176 391.032C65.24 393.224 67.328 395.384 69.472 397.496C70.36 398.368 71.264 399.208 72.168 400.064C74.152 401.952 76.16 403.816 78.208 405.632C79.224 406.528 80.256 407.416 81.28 408.296C83.288 410.016 85.32 411.704 87.392 413.352C88.48 414.224 89.576 415.08 90.672 415.936C92.768 417.552 94.896 419.12 97.048 420.656C98.16 421.448 99.256 422.256 100.384 423.032C102.656 424.6 104.968 426.104 107.296 427.592C108.344 428.256 109.368 428.944 110.424 429.6C113.112 431.256 115.848 432.84 118.608 434.392C119.336 434.8 120.048 435.24 120.784 435.64C124.352 437.592 127.976 439.464 131.656 441.232C131.744 441.272 131.84 441.312 131.928 441.352C135.44 443.032 139.008 444.624 142.616 446.128C143.736 446.6 144.88 447.016 146.008 447.464C148.616 448.504 151.224 449.528 153.88 450.472C155.288 450.976 156.712 451.432 158.128 451.912C160.544 452.728 162.976 453.52 165.424 454.248C166.976 454.712 168.536 455.144 170.104 455.576C172.472 456.232 174.856 456.856 177.264 457.44C178.888 457.832 180.52 458.208 182.16 458.568C184.568 459.096 186.984 459.576 189.416 460.024C191.064 460.328 192.704 460.64 194.368 460.904C196.88 461.312 199.408 461.656 201.944 461.984C203.544 462.192 205.136 462.424 206.744 462.592C209.544 462.896 212.368 463.112 215.192 463.312C216.56 463.408 217.912 463.552 219.28 463.624C223.496 463.864 227.728 464 232 464C236.272 464 240.504 463.864 244.72 463.64C246.088 463.568 247.448 463.424 248.808 463.328C251.64 463.128 254.464 462.912 257.256 462.608C258.864 462.432 260.456 462.208 262.056 462C264.592 461.672 267.12 461.328 269.632 460.92C271.288 460.648 272.936 460.344 274.584 460.04C277.016 459.592 279.44 459.112 281.84 458.584C283.48 458.224 285.112 457.848 286.736 457.456C289.136 456.872 291.52 456.248 293.896 455.592C295.456 455.16 297.024 454.728 298.576 454.264C301.032 453.528 303.456 452.736 305.872 451.928C307.288 451.448 308.72 450.992 310.12 450.488C312.768 449.536 315.384 448.52 317.992 447.48C319.12 447.032 320.264 446.608 321.384 446.144C324.976 444.64 328.528 443.064 332.024 441.384C332.128 441.336 332.24 441.288 332.344 441.24C336.024 439.472 339.648 437.6 343.216 435.648C343.952 435.248 344.664 434.808 345.392 434.4C348.152 432.848 350.888 431.264 353.576 429.608C354.632 428.96 355.664 428.272 356.704 427.6C359.032 426.112 361.344 424.6 363.616 423.04C364.736 422.264 365.84 421.464 366.952 420.664C369.104 419.12 371.232 417.552 373.328 415.944C374.432 415.096 375.52 414.232 376.608 413.36C378.672 411.712 380.712 410.024 382.72 408.304C383.752 407.424 384.784 406.536 385.792 405.64C387.84 403.824 389.848 401.96 391.832 400.072C392.728 399.216 393.64 398.368 394.528 397.504C396.672 395.392 398.768 393.232 400.824 391.04C401.48 390.336 402.16 389.656 402.816 388.952C405.496 386.032 408.12 383.056 410.648 380.008L410.656 380C395.152 316.816 346.976 266.6 285.104 247.952Z" fill="#C6C3BD"/>
</g>
<defs>
<clipPath id="clip0">
<rect width="464" height="464" fill="white"/>
</clipPath>
</defs>
</svg>
