<svg xmlns="http://www.w3.org/2000/svg" viewBox="0 0 995.57 285.58"><defs><style>.cls-1{fill:#fd628e;}.cls-2{fill:#013453;}.cls-3{fill:#c9f4fa;}.cls-4{fill:#00acc2;}.cls-5{fill:#fff;}</style></defs><title>Ресурс 2</title><g id="Слой_2" data-name="Слой 2"><g id="Your_design" data-name="Your design"><path class="cls-1" d="M835.77,130.06a23,23,0,0,0-20.54,13.09l-.54,1.09-.54-1.09a23,23,0,0,0-20.54-13.09c-12.76,0-23.15,10.89-23.15,24.29,0,15.48,11,26.43,19.21,33.32a125.5,125.5,0,0,0,13.08,9.52l12.11,7.54,12-7.82a144.33,144.33,0,0,0,12.87-9.65c9-7.56,19.24-18.14,19.24-32.91C858.92,140.95,848.54,130.06,835.77,130.06Zm-3.85,48a132.6,132.6,0,0,1-11.69,8.77l-5.53,3.62L809.1,187a118,118,0,0,1-11.73-8.54c-10.29-8.61-14.89-16-14.89-24.1,0-8.34,8.22-15.16,16.2-10.9,3.76,2,5.42,6.17,7.61,9.61q2.39,3.75,4.76,7.49a4.31,4.31,0,0,0,7.28,0c4-6.33,8.23-18.47,17.44-18.47,6.14,0,11.13,5.5,11.13,12.27C846.9,162.11,842.42,169.21,831.92,178.08Z"/><path class="cls-2" d="M433.42,149.73l-9.16-2.7q-8.41-2.4-12-5.71a11.07,11.07,0,0,1-3.6-8.56,12.36,12.36,0,0,1,5-10.51q5-3.75,13.89-3.76a40.65,40.65,0,0,1,13.89,2.25A37.59,37.59,0,0,1,451.59,126a7.82,7.82,0,0,0,2.7-2.4,6,6,0,0,0-1.05-8,20,20,0,0,0-5.93-3.83,40.11,40.11,0,0,0-9-2.7,60.56,60.56,0,0,0-11.19-1,43.27,43.27,0,0,0-12.69,1.73,29.88,29.88,0,0,0-9.69,4.88,21.22,21.22,0,0,0-6.23,7.73,23.66,23.66,0,0,0-2.18,10.29q0,9.46,5.48,15t15.09,8.41L430,160.1q8.56,2.56,12.54,6.46a13.68,13.68,0,0,1,4,10.21,15,15,0,0,1-5.18,11.79q-5.18,4.58-15.24,4.58a38.07,38.07,0,0,1-8.56-.9,37.51,37.51,0,0,1-7.06-2.33,32.16,32.16,0,0,1-5.56-3.15,32.49,32.49,0,0,1-4.05-3.38,9.07,9.07,0,0,0-3.68,2.48,6.11,6.11,0,0,0-1.58,4.28,6.83,6.83,0,0,0,2.18,4.58,21,21,0,0,0,6.16,4.28,41.5,41.5,0,0,0,9.61,3.15,60.31,60.31,0,0,0,12.54,1.2q15.77,0,24.33-7.36T459,176.77q0-11.11-6.83-17.35T433.42,149.73Z"/><path class="cls-2" d="M527,135.92q-7.66-5.86-20.73-5.86a54.44,54.44,0,0,0-11.41,1.12,37.52,37.52,0,0,0-9.32,3.23,10.35,10.35,0,0,0-3.3,2.56,5.45,5.45,0,0,0-1,3.45,5.05,5.05,0,0,0,1,3,14.32,14.32,0,0,0,2.18,2.4,67.31,67.31,0,0,1,9.91-4.06,38.31,38.31,0,0,1,11.87-1.8q7.66,0,12.17,3.46t4.5,11v4.21l-21.33,2.1q-11.71,1.2-18.17,6.23t-6.46,14.94q0,10.52,7.74,16.08t21.85,5.55A53.09,53.09,0,0,0,520,201.93a39.46,39.46,0,0,0,9.54-3.68,12.67,12.67,0,0,0,3.83-3.23,8.39,8.39,0,0,0,1.28-5v-35.6Q534.62,141.77,527,135.92Zm-4.21,53.92a24.41,24.41,0,0,1-5.93,2.47,35.67,35.67,0,0,1-10.44,1.28q-8.86,0-13.22-3.08a10.12,10.12,0,0,1-4.35-8.79q0-5.4,3.75-8.18T504.13,170l18.62-2Z"/><path class="cls-2" d="M613.06,139.45a14.86,14.86,0,0,0-3.68-3.38,36.66,36.66,0,0,0-9.69-4.28A44.2,44.2,0,0,0,587,130.06a42.69,42.69,0,0,0-14,2.18,29,29,0,0,0-18,17.34,40.78,40.78,0,0,0-2.55,15,43.37,43.37,0,0,0,2.63,16.07,29,29,0,0,0,7.06,10.74,26.84,26.84,0,0,0,10.28,6,40.68,40.68,0,0,0,12.47,1.88,33.22,33.22,0,0,0,10.59-1.5,22.15,22.15,0,0,0,7-3.61v9.46q0,9.46-5.33,13.75t-15.39,4.28a37,37,0,0,1-12.47-2,32.9,32.9,0,0,1-8.86-4.43,6.41,6.41,0,0,0-2.48,2.18,6.08,6.08,0,0,0-1,3.52c0,2.61,1.51,4.76,4.51,6.46a34.1,34.1,0,0,0,7.28,2.78,46.43,46.43,0,0,0,13,1.58,53.15,53.15,0,0,0,12.91-1.5,29.92,29.92,0,0,0,10.44-4.73A22,22,0,0,0,612,217.1a29.34,29.34,0,0,0,2.48-12.7V144A7.34,7.34,0,0,0,613.06,139.45Zm-10.59,43.78a25.83,25.83,0,0,1-6.38,4.28,22.42,22.42,0,0,1-9.84,1.87,26.31,26.31,0,0,1-8.49-1.35,17.25,17.25,0,0,1-6.9-4.35,20.47,20.47,0,0,1-4.58-7.74,34.78,34.78,0,0,1-1.66-11.49q0-12.16,6.09-18.32T587,140a28.84,28.84,0,0,1,9.09,1.28,28.2,28.2,0,0,1,6.38,2.93Z"/><path class="cls-2" d="M698.08,165.58q1.5-1.42,1.5-4.73a32.13,32.13,0,0,0-2.32-12.39,29.9,29.9,0,0,0-6.46-9.77,28.69,28.69,0,0,0-9.84-6.38,33.71,33.71,0,0,0-12.46-2.25,35.3,35.3,0,0,0-13.37,2.48,29.7,29.7,0,0,0-10.59,7.13A32.69,32.69,0,0,0,637.63,151a43.73,43.73,0,0,0-2.48,15.24q0,18.18,10.14,27.64t27.56,9.46a45,45,0,0,0,9.24-.9,35.08,35.08,0,0,0,7.51-2.4,16.68,16.68,0,0,0,5.1-3.46,5.84,5.84,0,0,0,1.88-4,6.39,6.39,0,0,0-3.6-5.71,33.64,33.64,0,0,1-8.11,4.51,29.79,29.79,0,0,1-11.42,2.1q-21.78,0-25.83-19.68l46.26-6.45A7,7,0,0,0,698.08,165.58Zm-51.21-1.13q.3-11.86,6.31-18.25a19.94,19.94,0,0,1,15.16-6.38q9,0,14,5.33a22.11,22.11,0,0,1,5.78,13.6Z"/><path class="cls-2" d="M733.06,190.89v-76q0-5.55-6.61-5.56a14.65,14.65,0,0,0-3.38.38,18.31,18.31,0,0,0-2.33.68v84.41a6.35,6.35,0,0,0,1.88,4.81,6.56,6.56,0,0,0,4.73,1.8h45.51a4.61,4.61,0,0,0,3.6-1.5,5.83,5.83,0,0,0,1.35-4.06,6.74,6.74,0,0,0-1.65-5Z"/><path class="cls-2" d="M923.21,130.66a9.64,9.64,0,0,0-5.11,1.2q-3.91,14.27-9.09,29t-11.19,29.89h-.6q-.9-2.55-2.33-6.16T892,177.14q-1.43-3.83-2.78-7.51T887,163.4l-9.31-26.88a12.27,12.27,0,0,0-2.63-4.51,5.78,5.78,0,0,0-4.13-1.35,8,8,0,0,0-3.6.9,7.49,7.49,0,0,0-2.85,2.4q1.35,4.66,3.45,10.59t4.51,12.32q2.4,6.39,5,12.84t5,12.17q2.4,5.71,4.51,10.21t3.45,7.06q1.65,3.15,7.21,3.15a17,17,0,0,0,4-.45,7,7,0,0,0,2.63-1.05q2.4-4.51,5.18-10.66t5.56-12.84q2.78-6.68,5.26-13.44t4.43-12.39q2-5.63,3.15-9.76a24.74,24.74,0,0,0,1.2-5.78,4.86,4.86,0,0,0-1.58-3.91A6.12,6.12,0,0,0,923.21,130.66Z"/><path class="cls-2" d="M994.07,165.58q1.5-1.42,1.5-4.73a32.13,32.13,0,0,0-2.33-12.39,29.59,29.59,0,0,0-6.46-9.77,28.55,28.55,0,0,0-9.83-6.38,33.72,33.72,0,0,0-12.47-2.25,35.34,35.34,0,0,0-13.37,2.48,29.88,29.88,0,0,0-10.59,7.13,32.82,32.82,0,0,0-6.9,11.34,43.5,43.5,0,0,0-2.48,15.24q0,18.18,10.14,27.64t27.56,9.46a44.81,44.81,0,0,0,9.23-.9,34.71,34.71,0,0,0,7.51-2.4,16.74,16.74,0,0,0,5.11-3.46,5.84,5.84,0,0,0,1.88-4c0-2.4-1.21-4.31-3.61-5.71a33.45,33.45,0,0,1-8.11,4.51,29.74,29.74,0,0,1-11.41,2.1q-21.78,0-25.84-19.68l46.26-6.45A7.07,7.07,0,0,0,994.07,165.58Zm-51.22-1.13q.3-11.86,6.31-18.25a20,20,0,0,1,15.17-6.38q9,0,14,5.33a22.12,22.12,0,0,1,5.79,13.6Z"/><path class="cls-3" d="M232.74,181.67a12.72,12.72,0,0,1,1.19,8.35,12.9,12.9,0,1,1-10.18-15.13,12.75,12.75,0,0,1,3.14,1.05,4.11,4.11,0,1,0,5.85,5.73Z"/><path class="cls-3" d="M17.34,130.28c-.36,4.14-.55,8.3-.55,12.52q0,3.13.14,6.24h0q5.7,1.47,11.68,2.68c5.55,1.12,11,2,16.37,2.7A116.36,116.36,0,0,1,17.34,130.28Zm1.08,34.16h0l.06.34A139.72,139.72,0,0,0,24,187.56q1.68,5.1,3.74,10c1-2.37,2.21-4.67,3.44-6.93a90.59,90.59,0,0,1,10.28-15c.2-.24.4-.49.62-.73A78.21,78.21,0,0,1,18.42,164.44Zm35.84-50c-9.55-15-15.22-30.81-17-45.33h0a142.42,142.42,0,0,0-15.52,36.4h0q5.45,3.73,11.2,7.35a314.39,314.39,0,0,0,34.7,18.91A122.19,122.19,0,0,1,54.26,114.46Zm56.26,70.6a12.89,12.89,0,0,0-15.13-10.17,12.75,12.75,0,0,0-3.14,1.05,4.11,4.11,0,1,1-5.85,5.73A12.72,12.72,0,0,0,85.21,190a12.9,12.9,0,0,0,25.31-5Zm191.29-54.79a116.67,116.67,0,0,1-27.65,24.16c5.34-.68,10.82-1.58,16.37-2.7,4-.8,7.89-1.7,11.69-2.68h0c.08-2.07.13-4.15.13-6.24C302.35,138.58,302.16,134.41,301.81,130.27ZM277.08,175l.65.73a93.1,93.1,0,0,1,10.28,15c1.22,2.26,2.38,4.58,3.43,6.94a141.19,141.19,0,0,0,9.23-32.82c0-.12,0-.23.05-.34h0A78.11,78.11,0,0,1,277.08,175ZM290.9,86.69a144.08,144.08,0,0,0-9-17.53c-1.81,14.51-7.48,30.32-17,45.3a122.19,122.19,0,0,1-13.35,17.34,314.39,314.39,0,0,0,34.7-18.91q5.75-3.61,11.2-7.35h0A142.05,142.05,0,0,0,290.9,86.69ZM159.57,0A142.45,142.45,0,0,0,49.45,51.91q5.22,9.64,11.42,19.39c21.43,33.63,46.62,59.81,68.72,73.56a90.25,90.25,0,0,1,25.95,9.43c1.36.73,2.7,1.53,4,2.34,1.33-.81,2.67-1.61,4-2.34a90.25,90.25,0,0,1,25.95-9.43c22.1-13.75,47.29-39.93,68.72-73.56q6.18-9.72,11.42-19.39A142.45,142.45,0,0,0,159.57,0Zm5.33,263.64a117.58,117.58,0,0,1-5.18-28.81c-.1-2.09-.15-4.18-.15-6.3,0,2.12,0,4.21-.15,6.3a118.53,118.53,0,0,1-5.18,28.81,27,27,0,0,1-24.35,18.84l1,.22a144.34,144.34,0,0,0,57.38,0l1-.22A27,27,0,0,1,164.9,263.64Zm-54.38-78.58a12.89,12.89,0,0,0-15.13-10.17,12.75,12.75,0,0,0-3.14,1.05,4.11,4.11,0,1,1-5.85,5.73A12.72,12.72,0,0,0,85.21,190a12.9,12.9,0,0,0,25.31-5Zm0,0a12.89,12.89,0,0,0-15.13-10.17,12.75,12.75,0,0,0-3.14,1.05,4.11,4.11,0,1,1-5.85,5.73A12.72,12.72,0,0,0,85.21,190a12.9,12.9,0,0,0,25.31-5Z"/><path class="cls-4" d="M110.52,185.06a12.9,12.9,0,0,1-25.31,5,12.72,12.72,0,0,1,1.19-8.35,4.11,4.11,0,1,0,5.85-5.73,12.75,12.75,0,0,1,3.14-1.05A12.89,12.89,0,0,1,110.52,185.06Z"/><path class="cls-4" d="M159.56,156.74l-.4.25-1.53,1-.78.53-1.12.76-.85.61-1,.75c-.29.21-.57.43-.85.65l-1,.76c-.29.22-.57.46-.85.69l-.93.77-.84.73-.89.78-.83.77-.85.79-.82.8-.81.81-.81.84-.78.82-.79.87-.74.84c-.26.3-.52.59-.77.89l-.7.86-.76.93c-.23.28-.44.57-.66.85s-.51.65-.75,1l-.61.84c-.25.34-.5.68-.74,1l-.55.8-.75,1.11c-.15.23-.29.46-.43.69q-1.53,2.39-2.88,4.89c0,.09-.11.18-.16.28-.25.47-.49.94-.73,1.42-.1.21-.22.42-.32.63-.22.45-.43.9-.65,1.36-.11.24-.23.49-.34.74-.21.44-.4.89-.59,1.33l-.34.79c-.19.45-.37.9-.55,1.34-.11.28-.21.55-.32.82-.17.45-.34.9-.5,1.36l-.3.83c-.16.45-.31.91-.46,1.37l-.27.85c-.15.46-.29.92-.42,1.39-.09.28-.17.56-.25.85-.13.47-.26.94-.38,1.42l-.21.84c-.12.49-.24,1-.35,1.46l-.18.83c-.11.5-.21,1-.31,1.5,0,.27-.1.54-.14.81-.1.51-.19,1-.27,1.54l-.12.77c-.08.53-.16,1.07-.22,1.6,0,.24-.06.47-.08.7-.07.57-.14,1.14-.19,1.71,0,.17,0,.35-.05.53,0,.63-.11,1.26-.15,1.89a23,23,0,0,0-.15,2.5c0,.31,0,.62,0,.93,0,.47,0,.94,0,1.41h.13c.65,5.73,18.14,5.11,35.94,3.42v-38.7h0V156.74Z"/><path class="cls-4" d="M155.54,154.29a90.25,90.25,0,0,0-25.95-9.43c-22.1-13.75-47.29-39.93-68.72-73.56q-6.18-9.72-11.42-19.39Q45,43.78,41.29,35.78c-4.25,9.2-5.6,20.78-4,33.35,1.8,14.52,7.47,30.34,17,45.33A122.19,122.19,0,0,0,67.61,131.8a314.39,314.39,0,0,1-34.7-18.91q-5.75-3.61-11.2-7.36C14,100.24,6.72,94.76,0,89.2c.13,13.09,6.34,27.68,17.34,41.08A116.36,116.36,0,0,0,45,154.43c-5.34-.68-10.82-1.58-16.37-2.7q-6-1.2-11.68-2.68c-5.54-1.42-10.87-3-16-4.75,2.88,7.41,9,14.44,17.44,20.14A78.21,78.21,0,0,0,42,175c-.22.24-.42.49-.62.73a90.59,90.59,0,0,0-10.28,15c-1.23,2.26-2.39,4.56-3.44,6.93,0,0,0,0,0,.06.37.9.76,1.79,1.15,2.68a143.9,143.9,0,0,0,65.4,69.46,153.47,153.47,0,0,0,30.42,11.47l.34.09c.66.17,1.34.34,2,.49,1,.22,1.89.43,2.84.63a27,27,0,0,0,24.35-18.84,118.53,118.53,0,0,0,5.18-28.81c.1-2.09.15-4.18.15-6.3v-3.9c-17.8,1.69-35.29,2.31-35.94-3.42h-.13c0-.47,0-.94,0-1.41,0-.31,0-.62,0-.93a23,23,0,0,1,.15-2.5c0-.63.1-1.26.15-1.89,0-.18,0-.36.05-.53,0-.57.12-1.14.19-1.71,0-.23.05-.46.08-.7.06-.53.14-1.07.22-1.6l.12-.77c.08-.52.17-1,.27-1.54,0-.27.09-.54.14-.81.1-.5.2-1,.31-1.5l.18-.83c.11-.49.23-1,.35-1.46l.21-.84c.12-.48.25-1,.38-1.42.08-.29.16-.57.25-.85.13-.47.27-.93.42-1.39l.27-.85c.15-.46.3-.92.46-1.37l.3-.83c.16-.46.33-.91.5-1.36.11-.27.21-.54.32-.82.18-.44.36-.89.55-1.34l.34-.79c.19-.44.38-.89.59-1.33.11-.25.23-.5.34-.74.22-.46.43-.91.65-1.36.1-.21.22-.42.32-.63.24-.48.48-1,.73-1.42,0-.1.11-.19.16-.28q1.35-2.5,2.88-4.89c.14-.23.28-.46.43-.69l.75-1.11.55-.8c.24-.35.49-.69.74-1l.61-.84c.24-.33.5-.65.75-1s.43-.57.66-.85l.76-.93.7-.86c.25-.3.51-.59.77-.89l.74-.84.79-.87.78-.82.81-.84.81-.81.82-.8.85-.79.83-.77.89-.78.84-.73.93-.77c.28-.23.56-.47.85-.69l1-.76c.28-.22.56-.44.85-.65l1-.75.85-.61,1.12-.76.78-.53,1.53-1c.14-.08.26-.17.41-.25v-.11C158.24,155.82,156.9,155,155.54,154.29Zm-41.23,48.14c-5.74,7.22-17.44,6.22-24.63,2.06a38.32,38.32,0,0,1-13.83-14.71c-2.35-4.5-3.55-9.37-2.65-13.93a15.55,15.55,0,0,1,.74-2.67,12.64,12.64,0,0,1,.63-1.41,10.41,10.41,0,0,1,1-1.51c5.79-7.55,15.79-7.08,23.71-3.48,6,2.73,11.49,8.15,14.89,13.76C118.17,187.21,119.43,196,114.31,202.43Z"/><path class="cls-1" d="M232.74,181.67a12.72,12.72,0,0,1,1.19,8.35,12.9,12.9,0,1,1-10.18-15.13,12.75,12.75,0,0,1,3.14,1.05,4.11,4.11,0,1,0,5.85,5.73Z"/><path class="cls-1" d="M195.64,218.87a23,23,0,0,0-.15-2.5c0-.63-.1-1.26-.15-1.89,0-.18,0-.36-.05-.53,0-.57-.12-1.14-.19-1.71,0-.23-.05-.46-.08-.7-.06-.53-.14-1.07-.22-1.6l-.12-.77c-.08-.52-.17-1-.27-1.54,0-.27-.09-.54-.14-.81-.1-.5-.2-1-.31-1.5l-.18-.83c-.11-.49-.23-1-.35-1.46l-.21-.84c-.12-.48-.25-1-.38-1.42-.08-.29-.16-.57-.25-.85-.13-.47-.27-.93-.42-1.39l-.27-.85c-.15-.46-.3-.92-.46-1.37l-.3-.83c-.16-.46-.33-.91-.5-1.36-.11-.27-.21-.54-.32-.82-.18-.44-.36-.89-.55-1.34l-.34-.79c-.19-.44-.38-.89-.59-1.33-.11-.25-.23-.5-.34-.74-.22-.46-.43-.91-.65-1.36-.1-.21-.22-.42-.32-.63-.24-.48-.48-1-.73-1.42l-.15-.27c-.9-1.67-1.87-3.31-2.89-4.9-.14-.23-.28-.46-.43-.69l-.75-1.11-.55-.8c-.24-.35-.49-.69-.74-1l-.61-.84c-.24-.33-.5-.65-.75-1s-.43-.57-.66-.85l-.76-.93-.7-.86c-.25-.3-.51-.59-.77-.89l-.74-.84-.79-.87-.78-.82-.81-.84-.81-.81-.82-.8-.85-.79-.83-.77-.89-.78-.84-.73-.93-.77c-.28-.23-.56-.47-.85-.69l-1-.76c-.28-.22-.56-.44-.85-.65l-1-.75-.85-.61-1.12-.76-.78-.53L160,157l-.41-.26h0v29.17h0v38.7c17.8,1.69,35.29,2.31,35.94-3.42h.13c0-.47,0-.94,0-1.41C195.63,219.49,195.64,219.18,195.64,218.87Z"/><path class="cls-1" d="M290.53,151.73c-5.55,1.12-11,2-16.37,2.7a116.67,116.67,0,0,0,27.65-24.16c11-13.39,17.2-28,17.33-41.07-6.72,5.56-14,11-21.71,16.34q-5.45,3.73-11.2,7.35a314.39,314.39,0,0,1-34.7,18.91,122.19,122.19,0,0,0,13.35-17.34c9.54-15,15.21-30.79,17-45.3v0c1.55-12.56.2-24.14-4-33.34q-3.74,8-8.16,16.13-5.22,9.64-11.42,19.39c-21.43,33.63-46.62,59.81-68.72,73.56a90.25,90.25,0,0,0-25.95,9.43c-1.36.73-2.7,1.53-4,2.34v.1l.41.26,1.53,1,.78.53,1.12.76.85.61,1,.75c.29.21.57.43.85.65l1,.76c.29.22.57.46.85.69l.93.77.84.73.89.78.83.77.85.79.82.8.81.81.81.84.78.82.79.87.74.84c.26.3.52.59.77.89l.7.86.76.93c.23.28.44.57.66.85s.51.65.75,1l.61.84c.25.34.5.68.74,1l.55.8.75,1.11c.15.23.29.46.43.69,1,1.59,2,3.23,2.89,4.9l.15.27c.25.47.49.94.73,1.42.1.21.22.42.32.63.22.45.43.9.65,1.36.11.24.23.49.34.74.21.44.4.89.59,1.33l.34.79c.19.45.37.9.55,1.34.11.28.21.55.32.82.17.45.34.9.5,1.36l.3.83c.16.45.31.91.46,1.37l.27.85c.15.46.29.92.42,1.39.09.28.17.56.25.85.13.47.26.94.38,1.42l.21.84c.12.49.24,1,.35,1.46l.18.83c.11.5.21,1,.31,1.5,0,.27.1.54.14.81.1.51.19,1,.27,1.54l.12.77c.08.53.16,1.07.22,1.6,0,.24.06.47.08.7.07.57.14,1.14.19,1.71,0,.17,0,.35.05.53,0,.63.11,1.26.15,1.89a23,23,0,0,1,.15,2.5c0,.31,0,.62,0,.93,0,.47,0,.94,0,1.41h-.13c-.65,5.73-18.14,5.11-35.94,3.42v3.9c0,2.12,0,4.21.15,6.3a117.58,117.58,0,0,0,5.18,28.81,27,27,0,0,0,24.33,18.84c1-.2,1.91-.41,2.86-.63.67-.15,1.35-.32,2-.49a146,146,0,0,0,75.75-47.88c1-1.27,2.07-2.56,3.07-3.86l1.48-2q1.47-2,2.87-4l.21-.3c.39-.58.79-1.16,1.17-1.74q1.27-1.92,2.49-3.88,2.7-4.36,5.08-8.92s0,0,0,0c1.88-3.61,3.6-7.3,5.19-11.1a.43.43,0,0,0,0,0c-1-2.36-2.21-4.68-3.43-6.94a93.1,93.1,0,0,0-10.28-15l-.65-.73a78.11,78.11,0,0,0,23.64-10.54c8.42-5.7,14.56-12.73,17.44-20.14-5.07,1.74-10.4,3.33-15.94,4.75C298.42,150,294.51,150.93,290.53,151.73Zm-47.24,38a38.32,38.32,0,0,1-13.83,14.71c-7.19,4.16-18.89,5.16-24.63-2.06-5.12-6.43-3.86-15.22.18-21.89,3.4-5.61,8.88-11,14.89-13.76,7.92-3.6,17.92-4.07,23.71,3.48a10.41,10.41,0,0,1,1,1.51,12.64,12.64,0,0,1,.63,1.41,15.55,15.55,0,0,1,.74,2.67C246.84,180.41,245.64,185.28,243.29,189.78Z"/><path class="cls-5" d="M100.34,200.19A12.9,12.9,0,0,1,85.21,190a12.72,12.72,0,0,1,1.19-8.35,4.11,4.11,0,1,0,5.85-5.73,12.75,12.75,0,0,1,3.14-1.05,12.89,12.89,0,1,1,5,25.3Z"/><path class="cls-5" d="M233.93,190a12.9,12.9,0,1,1-10.18-15.13,12.75,12.75,0,0,1,3.14,1.05,4.11,4.11,0,1,0,5.85,5.73A12.72,12.72,0,0,1,233.93,190Z"/><path class="cls-2" d="M195.62,219.8c0,.47,0,.94,0,1.41h-.13c-.65,5.73-18.14,5.11-35.94,3.42-17.8,1.69-35.29,2.31-35.94-3.42h-.13c0-.47,0-.94,0-1.41,0-.31,0-.62,0-.93a23,23,0,0,1,.15-2.5c0-.63.1-1.26.15-1.89,0-.18,0-.36.05-.53,0-.57.12-1.14.19-1.71,0-.23.05-.46.08-.7.06-.53.14-1.07.22-1.6l.12-.77c.08-.52.17-1,.27-1.54,0-.27.09-.54.14-.81.1-.5.2-1,.31-1.5l.18-.83c.11-.49.23-1,.35-1.46l.21-.84c.12-.48.25-1,.38-1.42.08-.29.16-.57.25-.85.13-.47.27-.93.42-1.39l.27-.85c.15-.46.3-.92.46-1.37l.3-.83c.16-.46.33-.91.5-1.36.11-.27.21-.54.32-.82.18-.44.36-.89.55-1.34l.34-.79c.19-.44.38-.89.59-1.33.11-.25.23-.5.34-.74.22-.46.43-.91.65-1.36.1-.21.22-.42.32-.63.24-.48.48-1,.73-1.42,0-.1.11-.19.16-.28q1.35-2.5,2.88-4.89c.14-.23.28-.46.43-.69l.75-1.11.55-.8c.24-.35.49-.69.74-1l.61-.84c.24-.33.5-.65.75-1s.43-.57.66-.85l.76-.93.7-.86c.25-.3.51-.59.77-.89l.74-.84.79-.87.78-.82.81-.84.81-.81.82-.8.85-.79.83-.77.89-.78.84-.73.93-.77c.28-.23.56-.47.85-.69l1-.76c.28-.22.56-.44.85-.65l1-.75.85-.61,1.12-.76.78-.53,1.53-1,.4-.25h0l.41.26,1.53,1,.78.53,1.12.76.85.61,1,.75c.29.21.57.43.85.65l1,.76c.29.22.57.46.85.69l.93.77.84.73.89.78.83.77.85.79.82.8.81.81.81.84.78.82.79.87.74.84c.26.3.52.59.77.89l.7.86.76.93c.23.28.44.57.66.85s.51.65.75,1l.61.84c.25.34.5.68.74,1l.55.8.75,1.11c.15.23.29.46.43.69,1,1.59,2,3.23,2.89,4.9l.15.27c.25.47.49.94.73,1.42.1.21.22.42.32.63.22.45.43.9.65,1.36.11.24.23.49.34.74.21.44.4.89.59,1.33l.34.79c.19.45.37.9.55,1.34.11.28.21.55.32.82.17.45.34.9.5,1.36l.3.83c.16.45.31.91.46,1.37l.27.85c.15.46.29.92.42,1.39.09.28.17.56.25.85.13.47.26.94.38,1.42l.21.84c.12.49.24,1,.35,1.46l.18.83c.11.5.21,1,.31,1.5,0,.27.1.54.14.81.1.51.19,1,.27,1.54l.12.77c.08.53.16,1.07.22,1.6,0,.24.06.47.08.7.07.57.14,1.14.19,1.71,0,.17,0,.35.05.53,0,.63.11,1.26.15,1.89a23,23,0,0,1,.15,2.5C195.64,219.18,195.63,219.49,195.62,219.8Z"/><path class="cls-2" d="M100.34,200.19A12.9,12.9,0,0,1,85.21,190a12.72,12.72,0,0,1,1.19-8.35,4.11,4.11,0,1,0,5.85-5.73,12.75,12.75,0,0,1,3.14-1.05,12.89,12.89,0,1,1,5,25.3Z"/><path class="cls-2" d="M233.93,190a12.9,12.9,0,1,1-10.18-15.13,12.75,12.75,0,0,1,3.14,1.05,4.11,4.11,0,1,0,5.85,5.73A12.72,12.72,0,0,1,233.93,190Z"/></g></g></svg>