<?xml version="1.0" standalone="no"?>
<!DOCTYPE svg PUBLIC "-//W3C//DTD SVG 20010904//EN"
 "http://www.w3.org/TR/2001/REC-SVG-20010904/DTD/svg10.dtd">
<svg version="1.0" xmlns="http://www.w3.org/2000/svg"
 width="700.000000pt" height="700.000000pt" viewBox="0 0 700.000000 700.000000"
 preserveAspectRatio="xMidYMid meet">
<metadata>
Created by potrace 1.14, written by Peter Selinger 2001-2017
</metadata>
<g transform="translate(0.000000,700.000000) scale(0.100000,-0.100000)"
fill="#000000" stroke="none">
<path d="M906 5748 c-185 -518 14 -1293 481 -1867 37 -46 74 -93 82 -103 10
-13 -40 8 -140 57 -402 202 -823 468 -1166 737 -61 49 -114 88 -118 88 -13 0
5 -148 30 -245 70 -277 235 -545 495 -806 136 -137 223 -211 353 -300 39 -27
64 -49 56 -49 -26 0 -302 50 -419 76 -162 36 -322 79 -409 109 -41 14 -78 25
-83 25 -13 0 19 -68 65 -140 126 -197 414 -399 712 -499 50 -17 89 -35 88 -39
-1 -5 -31 -47 -65 -93 -71 -94 -150 -221 -198 -320 l-33 -66 43 -94 c158 -351
382 -665 686 -958 353 -341 770 -584 1254 -731 251 -76 316 -76 470 -3 95 45
213 159 258 248 71 141 149 496 153 698 2 55 3 52 10 -33 21 -243 85 -524 147
-650 91 -186 328 -335 502 -317 72 8 294 74 442 131 420 162 776 394 1099 716
248 246 424 491 581 807 l91 182 -32 68 c-45 95 -123 223 -197 323 -35 47 -64
89 -64 94 0 4 45 23 100 42 253 85 502 249 641 422 51 63 139 212 125 212 -2
0 -55 -16 -118 -36 -155 -49 -451 -119 -636 -150 -85 -14 -156 -24 -158 -22
-2 3 24 24 59 48 118 83 202 154 320 269 276 270 458 568 527 866 21 90 36
215 26 215 -4 0 -64 -44 -134 -98 -382 -297 -793 -554 -1212 -758 l-92 -44 27
32 c259 322 396 557 503 870 81 235 112 414 112 654 0 181 -19 298 -72 447
-22 61 -32 70 -42 35 -9 -38 -222 -432 -319 -593 -432 -717 -1005 -1363 -1502
-1691 -67 -44 -99 -58 -195 -82 -166 -43 -382 -133 -505 -210 l-29 -18 -65 39
c-123 75 -307 149 -476 192 -89 23 -124 38 -185 78 -198 131 -375 283 -605
518 -270 276 -512 579 -740 924 -173 263 -364 592 -446 769 -24 53 -47 96 -50
96 -4 0 -19 -33 -33 -72z m1188 -2734 c220 -57 443 -282 487 -493 26 -128 -6
-256 -84 -334 -58 -58 -116 -80 -222 -85 -172 -8 -292 44 -436 187 -131 132
-197 258 -206 397 -9 125 27 215 112 280 81 62 221 81 349 48z m3072 1 c68
-20 141 -80 177 -144 58 -102 46 -253 -29 -391 -74 -135 -203 -265 -321 -325
-179 -89 -399 -68 -498 47 -100 117 -101 315 -1 480 97 161 258 289 419 333
69 18 192 19 253 0z"/>
<path d="M2130 2813 c-40 -7 -90 -24 -90 -31 0 -4 7 -16 15 -26 23 -30 18 -65
-14 -97 -33 -32 -65 -37 -99 -13 -30 20 -38 13 -52 -47 -45 -187 103 -362 294
-347 237 19 349 291 191 466 -62 68 -164 108 -245 95z"/>
<path d="M4725 2786 c-59 -27 -107 -72 -138 -130 -31 -58 -31 -193 0 -251 29
-54 88 -109 143 -134 55 -25 149 -27 211 -6 128 45 207 186 179 318 -15 75
-22 84 -51 63 -76 -53 -168 44 -114 120 13 20 12 22 -24 33 -64 19 -150 14
-206 -13z"/>
</g>
</svg>
